# xmcd
#
# Track frame offsets:
#	150
#	21500
#	42446
#	62326
#	87488
#	106832
#	129972
#	154402
#	177341
#	196156
#	217980
#	239498
#
# Disc length: 3425 seconds
#
# Revision: 7
# Processed by: cddbd v1.5.2PL0 Copyright (c) Steve Scherf et al.
# Submitted via: Jack! The Knife 20 Magnifico
#
DISCID=a10d5f0c
DTITLE=Eros Ramazzotti - Dove C'è Musica
DYEAR=1996
DGENRE=Pop
TTITLE0=Dove C'è Musica
TTITLE1=Stella Gemella
TTITLE2=Più Bella Cosa
TTITLE3=L'aurora
TTITLE4=Lettera Al Futuro
TTITLE5=Io Amerò
TTITLE6=Questo Immenso Show
TTITLE7=Quasi Amore
TTITLE8=Yo Sin Tì
TTITLE9=Lei Però
TTITLE10=L'uragano Meri
TTITLE11=Buona Vita
EXTD=Eros Ramazzotti
EXTT0=Fabrizio, Cogliati, Guidetti, Ramazzotti
EXTT1=Lavezzi, Cogliati, Tosetto, Ramazzotti
EXTT2=Cogliati, Guidetti, Ramazzotti
EXTT3=Cogliati, Ramazzotti
EXTT4=Cogliati, Ramazzotti
EXTT5=Cogliati, Ramazzotti
EXTT6=Cogliati, Ramazzotti
EXTT7=Cogliati, Ramazzotti
EXTT8=Tosetto, Ramazzotti, Maño
EXTT9=Cogliati, Tosetto, Ramazzotti
EXTT10=Cogliati, Ramazzotti
EXTT11=Cogliati, Tosetto, Ramazzotti
PLAYORDER=
